<svg 
          width="21.02235984802246" 
          height="21.766693115234375" fill="none" 
          xmlns="http://www.w3.org/2000/svg">
          <path d="M 9.699374198913574 12.658291816711426 C 9.918168067932129 12.87708568572998 10.21491527557373 13 10.524333000183105 13 C 10.83375072479248 13 11.130497932434082 12.87708568572998 11.349291801452637 12.658291816711426 C 11.568084716796875 12.439498901367188 11.690999984741211 12.142751693725586 11.690999984741211 11.833333969116211 L 11.690999984741211 1.1666667461395264 C 11.690999984741211 0.8572484254837036 11.568084716796875 0.5605018138885498 11.349291801452637 0.3417086601257324 C 11.130498886108398 0.12291590869426727 10.833751678466797 0 10.524333000183105 0 C 10.214914321899414 0 9.918167114257812 0.12291590869426727 9.699374198913574 0.3417086601257324 C 9.480581283569336 0.5605018138885498 9.357666015625 0.8572484254837036 9.357666015625 1.1666667461395264 L 9.357666015625 11.833333969116211 C 9.357666015625 12.142751693725586 9.480581283569336 12.439498901367188 9.699374198913574 12.658291816711426 ZM 18.056198120117188 8.133636474609375 C 17.369346618652344 6.475431442260742 16.155393600463867 5.089756011962891 14.602136611938477 4.1907501220703125 C 14.467069625854492 4.118313789367676 14.347563743591309 4.019953727722168 14.250479698181152 3.901261806488037 C 14.150857925415039 3.779468536376953 14.076902389526367 3.638782024383545 14.033061981201172 3.4876656532287598 C 13.989222526550293 3.3365511894226074 13.976402282714844 3.178128480911255 13.995375633239746 3.021927833557129 C 14.014348983764648 2.865730047225952 14.064722061157227 2.7149832248687744 14.143465995788574 2.578756093978882 C 14.222208976745605 2.4425301551818848 14.3276948928833 2.3236401081085205 14.453577995300293 2.229238271713257 C 14.579461097717285 2.134835720062256 14.723139762878418 2.066873788833618 14.875967979431152 2.029439687728882 C 15.028797149658203 1.9920048713684082 15.18761920928955 1.9858722686767578 15.342879295349121 2.0114095211029053 C 15.494067192077637 2.0362768173217773 15.638835906982422 2.090674638748169 15.768937110900879 2.171454429626465 C 17.77109718322754 3.32639741897583 19.336305618286133 5.109775543212891 20.221664428710938 7.2450761795043945 C 21.10824966430664 9.383332252502441 21.263402938842773 11.754631042480469 20.66299819946289 13.990180969238281 C 20.062593460083008 16.225730895996094 18.740283966064453 18.200223922729492 16.901718139648438 19.606582641601562 C 15.067007064819336 21.009992599487305 12.820823669433594 21.769147872924805 10.511177062988281 21.766687393188477 C 8.201530456542969 21.769145965576172 5.955352783203125 21.009992599487305 4.12064266204834 19.606582641601562 C 2.282076597213745 18.200223922729492 0.9597666561603546 16.225730895996094 0.35936179757118225 13.990180969238281 C -0.2410431206226349 11.754631042480469 -0.08588874340057373 9.383332252502441 0.8006948232650757 7.2450761795043945 C 1.687278389930725 5.106820106506348 3.2555954456329346 3.3214614391326904 5.261738300323486 2.1666624546051025 L 5.270480155944824 2.161630392074585 L 5.279417514801025 2.1569552421569824 C 5.546048641204834 2.0174763202667236 5.856260299682617 1.986412525177002 6.145253658294678 2.070251941680908 C 6.4342474937438965 2.1540915966033936 6.679671287536621 2.3463501930236816 6.830259323120117 2.606868267059326 C 6.9808478355407715 2.8673858642578125 7.024953842163086 3.176013469696045 6.953364372253418 3.468283176422119 C 6.881774425506592 3.7605526447296143 6.700026035308838 4.013858318328857 6.446084022521973 4.175288677215576 L 6.4370832443237305 4.1810102462768555 L 6.427846431732178 4.186343193054199 C 4.870937824249268 5.085224628448486 3.654137372970581 6.472719669342041 2.966163158416748 8.133636474609375 C 2.278189182281494 9.794551849365234 2.157489776611328 11.636066436767578 2.6227850914001465 13.37257194519043 C 3.088080406188965 15.109077453613281 4.113366603851318 16.64352798461914 5.539628028869629 17.737934112548828 C 6.965888977050781 18.83234405517578 8.713417053222656 19.425548553466797 10.51117992401123 19.425548553466797 C 12.308943748474121 19.425548553466797 14.05647087097168 18.83234405517578 15.482731819152832 17.737934112548828 C 16.908992767333984 16.64352798461914 17.93427848815918 15.109077453613281 18.399574279785156 13.37257194519043 C 18.864870071411133 11.636066436767578 18.744171142578125 9.794551849365234 18.056198120117188 8.133636474609375 Z M 10.525151252746582 21.266693115234375 C 10.524138450622559 21.266693115234375 10.523126602172852 21.266693115234375 10.522113800048828 21.266693115234375 L 10.525151252746582 21.266693115234375 C 10.525158882141113 21.266693115234375 10.52514362335205 21.266693115234375 10.525151252746582 21.266693115234375 Z M 10.50024700164795 21.266693115234375 C 10.366413116455078 21.26669692993164 10.232804298400879 21.264015197753906 10.099496841430664 21.25867462158203 C 10.231803894042969 21.263975143432617 10.364407539367676 21.266658782958984 10.497233390808105 21.266695022583008 L 10.50024700164795 21.266693115234375 Z" fill="rgb(255,255,255)"/>
        </svg>